<svg version="1.1" id="Layer_1" xmlns="http://www.w3.org/2000/svg" xmlns:xlink="http://www.w3.org/1999/xlink" x="0px" y="0px" viewBox="0 0 329.998 329.998" style="enable-background:new 0 0 329.998 329.998;" xml:space="preserve"><path id="XMLID_104_" d="M209.393,249.392l-29.394,29.393v-71.367c17.459-6.192,30-22.865,30-42.42s-12.541-36.228-30-42.42V51.211	l29.394,29.393c2.929,2.929,6.768,4.394,10.606,4.394s7.678-1.464,10.606-4.394c5.858-5.858,5.858-15.355,0-21.213L175.608,4.394	c-0.351-0.35-0.72-0.682-1.104-0.997c-0.171-0.142-0.353-0.264-0.529-0.396c-0.214-0.161-0.424-0.327-0.647-0.477	c-0.216-0.144-0.439-0.269-0.659-0.401c-0.199-0.119-0.393-0.244-0.599-0.353c-0.227-0.121-0.459-0.224-0.69-0.333	c-0.213-0.1-0.422-0.207-0.639-0.296c-0.227-0.094-0.457-0.169-0.687-0.252c-0.232-0.083-0.462-0.172-0.699-0.245	c-0.231-0.07-0.467-0.121-0.7-0.18c-0.24-0.061-0.479-0.128-0.723-0.177c-0.273-0.054-0.549-0.087-0.823-0.125	c-0.21-0.03-0.415-0.07-0.628-0.09c-0.986-0.098-1.978-0.098-2.965,0c-0.213,0.02-0.418,0.06-0.628,0.09	c-0.274,0.039-0.55,0.071-0.823,0.125c-0.244,0.049-0.482,0.116-0.723,0.177c-0.233,0.059-0.469,0.11-0.7,0.18	c-0.237,0.072-0.467,0.161-0.699,0.245c-0.23,0.082-0.46,0.158-0.687,0.252c-0.217,0.09-0.426,0.196-0.639,0.296	c-0.231,0.109-0.464,0.211-0.69,0.333c-0.205,0.11-0.399,0.235-0.599,0.353c-0.221,0.132-0.443,0.257-0.659,0.401	c-0.224,0.149-0.434,0.316-0.648,0.477c-0.177,0.132-0.358,0.254-0.529,0.396c-0.384,0.315-0.753,0.646-1.104,0.997L99.393,59.391	c-5.858,5.857-5.858,15.355,0,21.213c5.856,5.857,15.354,5.858,21.213,0l29.394-29.393v71.367c-17.459,6.192-30,22.865-30,42.42	s12.541,36.227,30,42.42v71.367l-29.394-29.393c-5.857-5.858-15.355-5.858-21.213,0c-5.858,5.858-5.858,15.356,0,21.213	l54.997,54.997c0.351,0.35,0.72,0.682,1.104,0.997c0.17,0.141,0.352,0.263,0.527,0.395c0.215,0.162,0.426,0.328,0.65,0.479	c0.213,0.143,0.434,0.267,0.653,0.397c0.201,0.12,0.398,0.247,0.605,0.357c0.224,0.12,0.454,0.221,0.683,0.329	c0.215,0.102,0.427,0.209,0.647,0.301c0.223,0.092,0.449,0.166,0.676,0.247c0.236,0.085,0.469,0.175,0.71,0.248	c0.226,0.068,0.454,0.118,0.683,0.176c0.246,0.063,0.49,0.131,0.741,0.181c0.263,0.052,0.526,0.082,0.791,0.121	c0.22,0.031,0.437,0.073,0.659,0.095c0.492,0.048,0.986,0.075,1.48,0.075s0.988-0.026,1.48-0.075	c0.223-0.022,0.439-0.064,0.659-0.095c0.265-0.038,0.528-0.069,0.791-0.121c0.251-0.05,0.495-0.119,0.741-0.181	c0.229-0.058,0.457-0.107,0.683-0.176c0.241-0.073,0.474-0.163,0.71-0.248c0.227-0.081,0.453-0.155,0.676-0.247	c0.221-0.092,0.433-0.199,0.647-0.301c0.229-0.107,0.459-0.209,0.683-0.329c0.207-0.111,0.403-0.237,0.605-0.357	c0.219-0.13,0.44-0.254,0.653-0.397c0.225-0.15,0.436-0.317,0.65-0.479c0.176-0.132,0.357-0.254,0.527-0.395	c0.384-0.314,0.753-0.646,1.104-0.997l54.997-54.997c5.858-5.857,5.858-15.355,0-21.213	C224.749,243.535,215.251,243.534,209.393,249.392z M164.989,149.999c0.004,0,0.007,0,0.01,0s0.006,0,0.01,0	c8.267,0.005,14.99,6.732,14.99,14.999c0,8.271-6.729,15-15,15s-15-6.729-15-15C149.999,156.73,156.723,150.004,164.989,149.999z" style="fill: {acolor};"></path><g></g><g></g><g></g><g></g><g></g><g></g><g></g><g></g><g></g><g></g><g></g><g></g><g></g><g></g><g></g></svg>