<svg version="1.1" id="Layer_1" xmlns="http://www.w3.org/2000/svg" xmlns:xlink="http://www.w3.org/1999/xlink" x="0px" y="0px" viewBox="0 0 512 512" style="enable-background:new 0 0 512 512;" xml:space="preserve"><path style="fill:#E7ECED;" d="M256,8.084c136.893,0,247.916,111.023,247.916,247.916S392.893,503.916,256,503.916	S8.084,392.893,8.084,256S119.107,8.084,256,8.084z"/><path d="M256,512C114.841,512,0,397.159,0,256S114.841,0,256,0s256,114.841,256,256S397.159,512,256,512z M256,16.168	C123.756,16.168,16.168,123.756,16.168,256S123.756,495.832,256,495.832S495.832,388.244,495.832,256S388.244,16.168,256,16.168z" style="fill: {acolor};" /><g>	<polygon style="fill:{bcolor};" points="342.232,282.947 256,433.853 169.768,282.947 "/>	<polygon style="fill:{bcolor};" points="256,78.147 342.232,229.053 169.768,229.053 "/></g><path d="M356.162,237.137H155.838L256,61.853L356.162,237.137z M183.699,220.968h144.602L256,94.442L183.699,220.968z" style="fill: {acolor};" /><path d="M256,450.147L155.838,274.863h200.325L256,450.147z M183.699,291.032L256,417.558l72.301-126.527H183.699z" style="fill: {acolor};" /><g></g><g></g><g></g><g></g><g></g><g></g><g></g><g></g><g></g><g></g><g></g><g></g><g></g><g></g><g></g></svg>